<svg width="910" height="128" viewBox="0 0 910 128" fill="none" xmlns="http://www.w3.org/2000/svg">
<path d="M0.920001 98V9.2H18.92L44.72 56.6L53.72 75.8H54.32C53.36 66.56 51.92 54.68 51.92 44.6V9.2H68.84V98H50.72L25.04 50.48L16.04 31.52H15.44C16.28 41 17.72 52.16 17.72 62.48V98H0.920001ZM117.443 99.68C100.523 99.68 85.1628 86.72 85.1628 64.52C85.1628 42.2 100.523 29.24 117.443 29.24C134.243 29.24 149.603 42.2 149.603 64.52C149.603 86.72 134.243 99.68 117.443 99.68ZM117.443 85.4C126.563 85.4 131.603 77.12 131.603 64.52C131.603 51.8 126.563 43.64 117.443 43.64C108.203 43.64 103.163 51.8 103.163 64.52C103.163 77.12 108.203 85.4 117.443 85.4ZM191.668 98V30.92H209.308V98H191.668ZM200.428 20C194.308 20 190.228 16.16 190.228 10.28C190.228 4.51999 194.308 0.799993 200.428 0.799993C206.548 0.799993 210.748 4.51999 210.748 10.28C210.748 16.16 206.548 20 200.428 20ZM228.113 98V30.92H242.393L243.833 39.8H244.193C249.833 34.04 256.073 29.24 264.713 29.24C274.433 29.24 280.073 33.44 283.193 40.88C289.433 34.52 295.913 29.24 304.673 29.24C318.953 29.24 325.433 39.32 325.433 56.12V98H307.793V58.4C307.793 47.84 304.913 44.36 298.433 44.36C294.593 44.36 290.393 46.76 285.593 51.8V98H267.953V58.4C267.953 47.84 264.953 44.36 258.473 44.36C254.753 44.36 250.313 46.76 245.753 51.8V98H228.113ZM360.217 99.68C348.217 99.68 340.417 91.28 340.417 79.76C340.417 65.48 352.057 57.92 379.057 54.92C378.697 48.32 375.937 43.4 367.657 43.4C361.417 43.4 355.297 46.04 349.177 49.76L342.817 38C350.737 33.2 360.217 29.24 370.897 29.24C387.937 29.24 396.697 39.32 396.697 58.88V98H382.297L380.977 90.92H380.497C374.617 95.96 367.897 99.68 360.217 99.68ZM365.977 85.88C371.017 85.88 374.737 83.6 379.057 79.4V65.84C362.617 67.88 357.217 72.32 357.217 78.44C357.217 83.6 360.817 85.88 365.977 85.88ZM438.195 127.16C422.475 127.16 410.235 121.76 410.235 110C410.235 104.36 413.595 99.44 419.835 96.08V95.48C416.355 93.2 413.715 89.6 413.715 84.08C413.715 79.04 417.075 74.48 421.275 71.6V71.12C416.595 67.76 412.155 61.4 412.155 53.48C412.155 37.64 425.115 29.24 439.275 29.24C443.115 29.24 446.715 29.84 449.475 30.92H473.715V43.88H462.195C463.995 46.16 465.315 49.88 465.315 53.96C465.315 69.2 453.795 76.76 439.275 76.76C436.635 76.76 433.635 76.28 430.635 75.2C428.835 76.88 427.755 78.32 427.755 81.08C427.755 84.56 430.515 86.6 438.315 86.6H449.835C466.035 86.6 474.915 91.52 474.915 103.4C474.915 116.96 460.635 127.16 438.195 127.16ZM439.275 65.96C445.155 65.96 449.835 61.4 449.835 53.48C449.835 45.56 445.275 41.24 439.275 41.24C433.395 41.24 428.715 45.56 428.715 53.48C428.715 61.4 433.395 65.96 439.275 65.96ZM440.955 116C451.035 116 457.875 111.56 457.875 106.4C457.875 101.6 453.915 100.28 446.715 100.28H438.555C434.475 100.28 431.715 100.04 429.315 99.32C426.195 101.84 424.875 104.48 424.875 107.24C424.875 112.88 431.115 116 440.955 116ZM512.627 99.68C493.787 99.68 479.147 86.72 479.147 64.52C479.147 42.68 494.507 29.24 510.347 29.24C528.947 29.24 538.427 42.68 538.427 61.28C538.427 64.64 538.067 67.76 537.707 69.44H496.187C497.747 80.48 504.947 86.12 514.907 86.12C520.307 86.12 525.107 84.44 530.027 81.44L535.907 92.36C529.307 96.92 520.907 99.68 512.627 99.68ZM495.947 57.68H523.427C523.427 48.56 519.347 42.8 510.707 42.8C503.627 42.8 497.387 47.84 495.947 57.68ZM583.141 98V25.4C583.141 11.48 589.741 0.679994 606.541 0.679994C611.821 0.679994 616.381 1.75999 619.381 2.83999L616.021 16.04C613.741 15.08 611.221 14.48 608.941 14.48C603.661 14.48 600.781 17.72 600.781 25.16V98H583.141ZM574.141 44.72V31.64L584.221 30.92H613.501V44.72H574.141ZM650.998 99.68C634.078 99.68 618.718 86.72 618.718 64.52C618.718 42.2 634.078 29.24 650.998 29.24C667.798 29.24 683.158 42.2 683.158 64.52C683.158 86.72 667.798 99.68 650.998 99.68ZM650.998 85.4C660.118 85.4 665.158 77.12 665.158 64.52C665.158 51.8 660.118 43.64 650.998 43.64C641.758 43.64 636.718 51.8 636.718 64.52C636.718 77.12 641.758 85.4 650.998 85.4ZM718.075 99.68C703.555 99.68 697.195 89.72 697.195 72.8V30.92H714.835V70.64C714.835 80.96 717.715 84.56 724.315 84.56C729.835 84.56 733.435 82.16 737.995 76.16V30.92H755.515V98H741.115L739.795 88.4H739.435C733.555 95.24 727.195 99.68 718.075 99.68ZM774.441 98V30.92H788.721L790.161 39.8H790.521C796.281 34.04 803.241 29.24 812.361 29.24C826.761 29.24 833.121 39.32 833.121 56.12V98H815.481V58.4C815.481 47.84 812.481 44.36 806.001 44.36C800.481 44.36 797.001 47 792.081 51.8V98H774.441ZM874.956 99.68C858.156 99.68 847.356 86.6 847.356 64.52C847.356 42.56 861.156 29.24 875.556 29.24C883.116 29.24 887.796 32 892.716 36.44L891.996 25.88V2.35999H909.636V98H895.236L893.916 91.04H893.556C888.636 95.96 881.916 99.68 874.956 99.68ZM879.396 85.16C884.196 85.16 888.156 83.24 891.996 78.32V48.8C888.036 45.08 883.716 43.64 879.516 43.64C871.956 43.64 865.476 50.84 865.476 64.28C865.476 78.32 870.636 85.16 879.396 85.16Z" fill="#838383"/>
</svg>
